<svg xmlns="http://www.w3.org/2000/svg" viewBox="0 0 500 500"><g id="freepik--background-complete--inject-197"><path d="M231.71,169.75l-78.62-1.05-23.83-.2H121.1l-.58,0a2.39,2.39,0,0,0,.58,0l1.68.05,6.48.11,23.83.21,78.62.35c30.69.11,58.48.25,78.59.48,10.06.11,18.2.23,23.83.36,2.81.07,5,.13,6.47.19a13.4,13.4,0,0,1,2.26.18,10.75,10.75,0,0,1-2.26.14c-1.48,0-3.67.07-6.48.08-5.63,0-13.77,0-23.83-.06C290.18,170.53,262.39,170.18,231.71,169.75Z" style="fill:hsl(0, 0%, 92%)"></path><path d="M231.07,176.68l-77.5-13.26-23.51-3.91-6.39-1-1.67-.24-.57-.06a4,4,0,0,0,.56.13l1.65.31,6.39,1.11,23.5,3.92,77.62,12.55c30.29,4.87,57.72,9.33,77.56,12.68,9.92,1.67,17.94,3.06,23.48,4.06,2.76.5,4.91.91,6.36,1.2a13.14,13.14,0,0,1,2.21.53,11.53,11.53,0,0,1-2.26-.21c-1.47-.19-3.63-.5-6.41-.93-5.56-.84-13.6-2.12-23.53-3.75C288.71,186.54,261.31,181.88,231.07,176.68Z" style="fill:hsl(0, 0%, 92%)"></path><path d="M229.35,183.42l-74.44-25.31-22.6-7.55-6.16-2-1.6-.5a4.16,4.16,0,0,0-.56-.15l.53.22,1.59.56,6.13,2.11,22.59,7.57L229.5,183c29.15,9.59,55.54,18.31,74.6,24.74,9.53,3.21,17.24,5.85,22.55,7.71,2.65.93,4.71,1.67,6.1,2.19a13.06,13.06,0,0,1,2.09.87,11.94,11.94,0,0,1-2.2-.56c-1.42-.42-3.51-1.07-6.19-1.93-5.36-1.7-13.09-4.24-22.64-7.41C284.72,202.24,258.4,193.32,229.35,183.42Z" style="fill:hsl(0, 0%, 92%)"></path><path d="M226.6,189.8l-69.54-36.7-21.12-11-5.77-3-1.51-.75a3.9,3.9,0,0,0-.52-.24,2.05,2.05,0,0,0,.49.3l1.48.81,5.72,3,21.12,11,69.86,36.07c27.28,14.05,52,26.82,69.78,36.17,8.91,4.67,16.1,8.48,21.05,11.16,2.48,1.33,4.39,2.39,5.68,3.12a12,12,0,0,1,1.93,1.18,11.57,11.57,0,0,1-2.08-.9c-1.33-.64-3.29-1.61-5.8-2.88-5-2.53-12.27-6.25-21.2-10.88C278.32,217.09,253.73,204.14,226.6,189.8Z" style="fill:hsl(0, 0%, 92%)"></path><path d="M222.88,195.67l-62.94-47.12-19.15-14.18-5.23-3.82-1.38-1a2.71,2.71,0,0,0-.48-.31,4.9,4.9,0,0,0,.44.37l1.34,1,5.17,3.9,19.14,14.19,63.37,46.54c24.75,18.15,47.13,34.62,63.26,46.63,8.07,6,14.58,10.9,19.05,14.32,2.24,1.71,4,3.05,5.12,4a12.49,12.49,0,0,1,1.72,1.47,11.28,11.28,0,0,1-1.91-1.21c-1.22-.84-3-2.11-5.29-3.75-4.56-3.29-11.13-8.09-19.23-14.07C269.7,230.71,247.43,214.07,222.88,195.67Z" style="fill:hsl(0, 0%, 92%)"></path><path d="M218.29,200.88l-54.85-56.33c-7-7.16-12.75-13-16.7-17L142.16,123,141,121.8l-.43-.39a3.08,3.08,0,0,0,.38.44l1.15,1.22,4.51,4.66,16.69,17,55.36,55.83c21.63,21.77,41.18,41.52,55.25,55.9,7,7.19,12.7,13,16.58,17.11,1.95,2,3.45,3.62,4.45,4.71a11.67,11.67,0,0,1,1.47,1.73,11.56,11.56,0,0,1-1.7-1.5c-1.08-1-2.64-2.55-4.64-4.53-4-4-9.75-9.72-16.81-16.88C259.09,242.78,239.68,222.89,218.29,200.88Z" style="fill:hsl(0, 0%, 92%)"></path><path d="M213,205.32l-45.42-64.17-13.86-19.38-3.81-5.25-1-1.35a3.11,3.11,0,0,0-.36-.44,4.92,4.92,0,0,0,.31.48l.95,1.39,3.73,5.3c3.28,4.6,8,11.22,13.84,19.39,11.79,16.33,28,38.87,46,63.76s34.21,47.43,45.87,63.82c5.83,8.2,10.52,14.85,13.73,19.48,1.6,2.31,2.83,4.11,3.65,5.35a12.82,12.82,0,0,1,1.19,1.93,11.22,11.22,0,0,1-1.45-1.75c-.9-1.17-2.21-2.92-3.88-5.19-3.33-4.53-8.11-11.12-14-19.29C246.73,253.06,230.66,230.39,213,205.32Z" style="fill:hsl(0, 0%, 92%)"></path><path d="M207,208.88l-34.83-70.49c-4.49-9-8.13-16.26-10.66-21.31l-2.94-5.78c-.34-.64-.6-1.13-.78-1.49a4.63,4.63,0,0,0-.29-.5,3.49,3.49,0,0,0,.23.53l.72,1.53,2.85,5.81c2.52,5.06,6.16,12.33,10.64,21.32,9.09,18,21.62,42.77,35.47,70.17s26.39,52.19,35.34,70.2c4.48,9,8.07,16.32,10.51,21.38,1.22,2.54,2.16,4.51,2.78,5.86a12.42,12.42,0,0,1,.86,2.09,10.85,10.85,0,0,1-1.15-1.94c-.71-1.31-1.73-3.24-3-5.74-2.59-5-6.28-12.25-10.8-21.24C232.88,261.3,220.55,236.4,207,208.88Z" style="fill:hsl(0, 0%, 92%)"></path><path d="M200.53,211.45l-23.31-75.09-7.17-22.73c-.86-2.66-1.53-4.73-2-6.16-.23-.69-.41-1.21-.54-1.59a3.85,3.85,0,0,0-.2-.54,3.11,3.11,0,0,0,.14.56l.47,1.61,1.9,6.2c1.7,5.38,4.14,13.14,7.16,22.72,6.14,19.18,14.62,45.64,24,74.88S218.81,267,224.82,286.2c3,9.6,5.4,17.38,7,22.77.8,2.69,1.42,4.79,1.81,6.22a11.93,11.93,0,0,1,.53,2.2,11.27,11.27,0,0,1-.84-2.11c-.49-1.39-1.19-3.46-2.08-6.13-1.77-5.34-4.27-13.09-7.31-22.68C217.85,267.3,209.6,240.77,200.53,211.45Z" style="fill:hsl(0, 0%, 92%)"></path><path d="M193.75,213c-4.38-30.39-8.33-57.89-11.2-77.82-1.48-9.94-2.68-18-3.51-23.57-.44-2.76-.77-4.91-1-6.4-.12-.71-.22-1.26-.28-1.66a4.41,4.41,0,0,0-.12-.56,2.24,2.24,0,0,0,.05.57l.21,1.67c.21,1.49.51,3.65.9,6.42.83,5.58,2,13.63,3.49,23.57,3.06,19.9,7.26,47.37,11.91,77.72s8.86,57.8,11.77,77.7c1.46,10,2.6,18,3.35,23.59.37,2.79.65,5.00.82,6.43a13.11,13.11,0,0,1,.17,2.26,10.6,10.6,0,0,1-.49-2.21c-.27-1.46-.64-3.61-1.09-6.39-.91-5.55-2.16-13.6-3.66-23.54C202.07,270.85,198.09,243.35,193.75,213Z" style="fill:hsl(0, 0%, 92%)"></path><path d="M186.81,213.42c.39-30.7.74-58.48,1-78.62.08-10.05.14-18.18.19-23.83V104.5c0-.73,0-1.29,0-1.69a4.09,4.09,0,0,0,0-.57,3.09,3.09,0,0,0,0,.57c0,.4,0,1,0,1.68,0,1.51-.06,3.68-.1,6.48-.05,5.65-.12,13.78-.2,23.83-.08,20.14-.18,47.92-.3,78.62s-.22,58.48-.43,78.6c-.1,10.05-.22,18.19-.35,23.82-.06,2.81-.13,5-.19,6.48a11,11,0,0,1-.18,2.25,12.71,12.71,0,0,1-.14-2.26c0-1.48-.06-3.66-.08-6.48,0-5.62,0-13.76,0-23.82C186.06,271.89,186.39,244.1,186.81,213.42Z" style="fill:hsl(0, 0%, 92%)"></path><path d="M179.88,212.79c5.16-30.27,9.83-57.66,13.21-77.51L197,111.77c.44-2.76.78-4.91,1-6.4.11-.72.19-1.27.24-1.67a4,4,0,0,0,.06-.57,5.41,5.41,0,0,0-.13.56c-.07.4-.17,1-.3,1.66-.26,1.48-.63,3.63-1.11,6.38-.93,5.57-2.26,13.6-3.91,23.51l-12.5,77.62c-4.86,30.3-9.3,57.73-12.63,77.57-1.67,9.92-3.05,17.95-4.05,23.48-.5,2.77-.9,4.92-1.2,6.37a12.36,12.36,0,0,1-.52,2.2,10.56,10.56,0,0,1,.21-2.25c.19-1.47.5-3.63.92-6.41.84-5.57,2.12-13.61,3.74-23.54C170.06,270.43,174.7,243,179.88,212.79Z" style="fill:hsl(0, 0%, 92%)"></path><path d="M173.14,211.08C183,182,191.93,155.69,198.4,136.62L205.94,114c.86-2.66,1.54-4.73,2-6.16.22-.69.38-1.22.5-1.6a4.16,4.16,0,0,0,.15-.56,4.77,4.77,0,0,0-.21.53q-.21.57-.57,1.59c-.49,1.42-1.19,3.48-2.1,6.13-1.79,5.35-4.37,11.9-7.31,19.39C184.67,186.4,176.1,205.32,173.14,211.08Z" style="fill:hsl(0, 0%, 92%)"></path><rect x="362" y="76.94" width="80.79" height="122.06" style="fill:hsl(0, 0%, 100%)"></rect><path d="M117,434.73c0,.15-11.07.27-24.72.27s-24.72-.12-24.72-.27,11.07-.28,24.72-.28S117,434.58,117,434.73Z" style="fill:hsl(0, 0%, 96%)"></path><path d="M119.27,472.15c0,.15-12,.27-26.86.27s-26.87-.12-26.87-.27,12-.28,26.87-.28S119.27,472,119.27,472.15Z" style="fill:hsl(0, 0%, 96%)"></path><path d="M197.42,235.74s0-.3,0-.87.06-1.45.11-2.56c.1-2.25.29-5.57.59-9.84.61-8.53,1.69-20.88,3.91-36q.81-5.69,1.87-11.87.54-3.08,1.11-6.29a21.82,21.82,0,0,1,1.83-6.41,7.38,7.38,0,0,1,2.26-2.62,4.54,4.54,0,0,1,3.43-.85,4.21,4.21,0,0,1,2.79,2.25,6.58,6.58,0,0,1,.74,3.57,8.14,8.14,0,0,1-4,6,12.24,12.24,0,0,1-7.29,1.81,13.28,13.28,0,0,1-7.22-2.67A14,14,0,0,1,193,163a16.76,16.76,0,0,1-.88-8,12.19,12.19,0,0,1,1.17-4,5.8,5.8,0,0,1,3-3,3.77,3.77,0,0,1,2.18-.1,4.74,4.74,0,0,1,1.91,1,6.75,6.75,0,0,1,2.11,3.71,14.52,14.52,0,0,1,.21,4.26,40.7,40.7,0,0,1-.57,4.24,28.79,28.79,0,0,1-2.71,8.19,15.86,15.86,0,0,1-5.85,6.47,12.78,12.78,0,0,1-4.13,1.61,9.81,9.81,0,0,1-4.41-.16,9.24,9.24,0,0,1-3.78-2.23,12,12,0,0,1-2.47-3.57,26.37,26.37,0,0,1-2.05-8.26c-.16-1.4-.25-2.79-.3-4.18a25.52,25.52,0,0,1,.07-4.19,6.92,6.92,0,0,1,1.65-3.85,4.52,4.52,0,0,1,1.77-1.21,3,3,0,0,1,2.15,0,3.67,3.67,0,0,1,1.64,1.37,7.16,7.16,0,0,1,.88,1.88,13.73,13.73,0,0,1,.58,4c.12,5.31-1.17,10.69-4.31,14.79a15,15,0,0,1-5.94,4.61,11.2,11.2,0,0,1-7.27.65,9.74,9.74,0,0,1-5.63-4.28,11,11,0,0,1-1.8-6.64,9.2,9.2,0,0,1,.81-3.31,5.07,5.07,0,0,1,2.28-2.47,2.6,2.6,0,0,1,3.14.75,6.14,6.14,0,0,1,1.15,3,25.17,25.17,0,0,1-.24,6.16q-.31,3-.61,5.84c-1.6,15.21-3.13,27.5-4.33,36-.6,4.24-1.13,7.52-1.5,9.74-.19,1.1-.34,1.94-.44,2.53s-.17.85-.17.85,0-.29.11-.86.23-1.43.4-2.53c.34-2.23.83-5.51,1.4-9.75,1.15-8.48,2.62-20.77,4.18-36q.28-2.85.59-5.84a25,25,0,0,0,.22-6.06,5.68,5.68,0,0,0-1.07-2.82,2.2,2.2,0,0,0-2.67-.64,4.71,4.71,0,0,0-2.07,2.28,8.67,8.67,0,0,0-.76,3.15,10.62,10.62,0,0,0,1.74,6.38,9.23,9.23,0,0,0,5.38,4.09,10.8,10.8,0,0,0,7-.64,14.41,14.41,0,0,0,5.75-4.48c3-4,4.32-9.26,4.19-14.48a13.22,13.22,0,0,0-.55-3.87,4.41,4.41,0,0,0-2.24-2.94,3,3,0,0,0-3.37,1,6.36,6.36,0,0,0-1.52,3.59,23.3,23.3,0,0,0-.07,4.1c0,1.38.14,2.77.29,4.15a25.72,25.72,0,0,0,2,8.09,11.12,11.12,0,0,0,2.36,3.43,8.7,8.7,0,0,0,3.57,2.1,10.45,10.45,0,0,0,8.14-1.39,15.45,15.45,0,0,0,5.66-6.28,28.39,28.39,0,0,0,2.67-8c.46-2.77.93-5.62.36-8.3a6.22,6.22,0,0,0-1.94-3.44,3.57,3.57,0,0,0-3.6-.84,5.29,5.29,0,0,0-2.7,2.71,11.79,11.79,0,0,0-1.12,3.81,16.27,16.27,0,0,0,.85,7.78,13.45,13.45,0,0,0,4.44,6.18,12.79,12.79,0,0,0,7,2.59,12,12,0,0,0,7-1.73,7.75,7.75,0,0,0,3.79-5.69,6.22,6.22,0,0,0-.68-3.32,3.83,3.83,0,0,0-2.49-2,4.09,4.09,0,0,0-3.1.78,6.88,6.88,0,0,0-2.14,2.47,21.39,21.39,0,0,0-1.8,6.28c-.39,2.14-.76,4.23-1.13,6.29-.71,4.11-1.34,8.07-1.9,11.85-2.26,15.12-3.39,27.46-4.07,36-.33,4.27-.54,7.58-.68,9.83-.07,1.12-.12,2-.16,2.56S197.42,235.74,197.42,235.74Z" style="fill:hsl(0, 0%, 100%)"></path><path d="M443.2,198.6a100.15,100.15,0,0,0,14.09,17.63" style="fill:hsl(0, 0%, 100%)"></path><path d="M348.63,215.75l14.08-17.37" style="fill:hsl(0, 0%, 100%)"></path><path d="M317.12,269.6c-6.84-6.6-22.52-4.51-25.95.35a12,12,0,0,0-15.38,6.26L259.28,281c-2.82.81-5.76,1.7-7.83,3.77s-2.86,5.74-.9,7.92c-5.8,1.92-7.54,10.86-2.88,14.81a6.36,6.36,0,0,0,1.54,9.12A63.58,63.58,0,0,0,239.65,336c-.86,2.9-1.5,6.12-.26,8.88s5.09,4.47,7.42,2.54a7.47,7.47,0,0,0,.18,8.05c-2.83.25-3.38,4.69-1.3,6.62s5.26,1.94,8.09,1.69,5.89-.6,8.32.87a2.56,2.56,0,0,1-.8,1.85c-4.61,4.28-5.54,11.19-1.56,16l1,1.24c1.8,2.22,6,4.09,8.62,5.24,6.62,2.92,10.4,2,17.62,2.6-1.65,4.75,10.64,14.2,23.28,3.28,27,5.39,46.3,6.84,73.77,5.11,3.92-.25,8.6-1.09,10.11-4.72,3.23.64,6.56-1.06,8.76-3.52s3.47-5.57,4.71-8.63a17.09,17.09,0,0,0,11.28-16.19,21.16,21.16,0,0,0,7-15.53c6.46-2.45,9.54-11.25,6-17.19a74.88,74.88,0,0,0-9.67-22.59c4.43-1.27,5.72-7.44,3.6-11.53s-6.39-6.52-10.43-8.74c3.41.68,6.06-3.74,5-7.07s-4.22-5.46-7.31-7a63.21,63.21,0,0,0-14.34-5.3c-2-5.81-10-12.05-15.69-14.3-23-9.11-38.87-10.75-66,12" style="fill:hsl(210, 13%, 14%)"></path><path d="M374.45,329.68a3.31,3.31,0,0,1-2.78,3.69,3.16,3.16,0,0,1-3.74-2.56,3.31,3.31,0,0,1,2.77-3.69A3.17,3.17,0,0,1,374.45,329.68Z" style="fill:hsl(210, 13%, 14%)"></path><path d="M378.87,319.5c-.36.47-3.07-1.08-6.6-.65s-5.92,2.51-6.36,2.12c-.21-.17.12-1,1.15-2a9.06,9.06,0,0,1,5-2.22,8.74,8.74,0,0,1,5.32,1C378.59,318.55,379.05,319.28,378.87,319.5Z" style="fill:hsl(210, 13%, 14%)"></path><path d="M342.59,332.86a3.31,3.31,0,0,1-2.78,3.69,3.16,3.16,0,0,1-3.74-2.56,3.31,3.31,0,0,1,2.77-3.69A3.17,3.17,0,0,1,342.59,332.86Z" style="fill:hsl(210, 13%, 14%)"></path><path d="M344.18,324.27c-.36.48-3.07-1.07-6.6-.64s-5.92,2.51-6.36,2.12c-.21-.17.11-1,1.15-1.95a9.14,9.14,0,0,1,5-2.23,8.82,8.82,0,0,1,5.32,1.05C343.89,323.33,344.36,324.06,344.18,324.27Z" style="fill:hsl(210, 13%, 14%)"></path><path d="M360.12,349c0-.2,2.12-.84,5.63-1.72.89-.2,1.72-.48,1.8-1.12a4.62,4.62,0,0,0-.92-2.6L363.14,337c-4.86-9.36-8.5-17.09-8.13-17.28s4.64,7.23,9.51,16.58c1.17,2.31,2.3,4.51,3.37,6.62a5.22,5.22,0,0,1,.89,3.49,2.26,2.26,0,0,1-1.33,1.49,5.91,5.91,0,0,1-1.5.4C362.38,348.91,360.16,349.19,360.12,349Z" style="fill:hsl(210, 13%, 14%)"></path><path d="M344,309.53c-.24,1-3.82,1-7.91,2s-7.32,2.52-8,1.73c-.3-.39.18-1.36,1.42-2.45a14.19,14.19,0,0,1,12.1-2.81C343.26,308.39,344.11,309.05,344,309.53Z" style="fill:hsl(210, 13%, 14%)"></path><path d="M376.18,307.47c-.52.88-3.06.33-6,.64s-5.35,1.18-6,.41c-.3-.38,0-1.23,1-2.12a8.76,8.76,0,0,1,9.68-.85C376,306.26,376.41,307,376.18,307.47Z" style="fill:hsl(210, 13%, 14%)"></path><path d="M394.58,319.6a17.71,17.71,0,0,0-5.08-10.77c-1.63-1.5-3.63-2.59-5.1-4.25-3.18-3.59-3.15-8.9-4.72-13.43a19.51,19.51,0,0,0-13-12.19c-5-1.36-10.41-.73-15.11-2.8-3.48-1.53-6.25-4.43-9.81-5.75-6.94-2.58-14.47,1.44-20.53,5.68-.89,5.13,2.61,9.25,6,13.21A18.07,18.07,0,0,0,341,295.54c4-.06,8.66-1.31,11.7,1.35s2.43,8.2,5.12,11.47c3.86,4.69,11.66,2.23,17.11,4.9,4.21,2.06,6.26,6.76,8.6,10.82s6.17,8.19,10.82,7.63A52.79,52.79,0,0,0,394.58,319.6Z" style="fill:hsl(210, 13%, 14%)"></path><path d="M331.94,284.52a91.47,91.47,0,0,0-34,8.74c-3.16,1.52-6.42,3.38-8.06,6.48-1.44,2.73-1.4,6-1.14,9.06.82,9.62,5.57,21.13,9.9,29.77l12.56,6.32c9.1-2.88,3.67-18.56,2.64-26.55a19,19,0,0,0,9.83-17.53A21,21,0,0,0,331.94,284.52Z" style="fill:hsl(210, 13%, 14%)"></path><path d="M245.29,347.74a6.44,6.44,0,0,1-1.24,0,8.6,8.6,0,0,1-3.39-1.17,8.38,8.38,0,0,1-3.63-4.36,8.78,8.78,0,0,1,.73-7.46,21.75,21.75,0,0,1,2.88-3.43,10.53,10.53,0,0,0,2.64-3.93,6.86,6.86,0,0,0-.61-4.94c-.72-1.63-1.75-3.19-2.46-5a15.34,15.34,0,0,1,10.08-20.34l-.12.37a7.63,7.63,0,0,1-1.6-3.31,9.75,9.75,0,0,1,0-3.73,11,11,0,0,1,1.31-3.54,12.57,12.57,0,0,1,2.45-2.94,24.2,24.2,0,0,1,10-4.91,36.88,36.88,0,0,1,10.46-1.24l-.23.24A11.11,11.11,0,0,1,278,268a11.31,11.31,0,0,1,5.41-1.46,18,18,0,0,1,5.22,1,10.38,10.38,0,0,0,2.44.37,6.29,6.29,0,0,0,2.33-.42,19.27,19.27,0,0,0,4-2.31,16.45,16.45,0,0,1,3.81-2.1,13.27,13.27,0,0,1,3.91-.82,13.14,13.14,0,0,1,6.61,1.28,13.69,13.69,0,0,1,4,3,13.34,13.34,0,0,1,1.84,2.57,7.37,7.37,0,0,1,.46,1s-.17-.33-.53-.94a13.61,13.61,0,0,0-5.91-5.42,13.39,13.39,0,0,0-10.31-.36,16.44,16.44,0,0,0-3.72,2.08,19.54,19.54,0,0,1-4,2.38,6.55,6.55,0,0,1-2.46.45,10.9,10.9,0,0,1-2.54-.37,18,18,0,0,0-5.12-.94,11,11,0,0,0-5.19,1.42,10.67,10.67,0,0,0-5.31,9.67v.25h-.25a36.19,36.19,0,0,0-10.32,1.23,23.78,23.78,0,0,0-9.76,4.81,12.26,12.26,0,0,0-2.36,2.83A10.35,10.35,0,0,0,249,290.5a9.16,9.16,0,0,0,0,3.54,7.22,7.22,0,0,0,1.5,3.11l.23.28-.35.1a14.93,14.93,0,0,0-9.82,19.74c.68,1.76,1.7,3.33,2.44,5a7.32,7.32,0,0,1,.6,5.21,10.78,10.78,0,0,1-2.75,4,21.89,21.89,0,0,0-2.86,3.37,8.55,8.55,0,0,0-.77,7.22,8.28,8.28,0,0,0,3.49,4.3,8.84,8.84,0,0,0,3.32,1.22C244.87,347.73,245.29,347.71,245.29,347.74Z" style="fill:hsl(210, 13%, 14%)"></path><path d="M155.93,209.12a6.06,6.06,0,0,1-.77-.4c-.48-.28-1.23-.66-2.13-1.24a61.1,61.1,0,0,1-7.36-5.33,64.15,64.15,0,0,1-9.38-9.68,64.18,64.18,0,0,1-13.14-30A65.45,65.45,0,0,1,122.4,149a61.25,61.25,0,0,1,1.07-9c.18-1,.41-1.86.54-2.41a7.49,7.49,0,0,1,.22-.83,4,4,0,0,1-.13.85c-.08.56-.28,1.37-.44,2.43a68.81,68.81,0,0,0-.9,9,66.7,66.7,0,0,0,5.49,29.08,67,67,0,0,0,17.65,23.75,69.15,69.15,0,0,0,7.23,5.44c.89.6,1.61,1,2.08,1.32A4.91,4.91,0,0,1,155.93,209.12Z" style="fill:hsl(210, 13%, 14%)"></path><path d="M129.22,124.05a13.09,13.09,0,0,1-1.16,3.43,13.18,13.18,0,0,1-1.63,3.25,13,13,0,0,1,1.16-3.44A13.84,13.84,0,0,1,129.22,124.05Z" style="fill:hsl(210, 13%, 14%)"></path><path d="M246.81,178a3.42,3.42,0,0,1,.22-.71c.18-.51.43-1.17.73-2l.55-1.44c.18-.53.33-1.12.52-1.75.36-1.26.86-2.67,1.17-4.29.17-.81.36-1.65.56-2.53s.28-1.81.44-2.77c.34-1.91.45-4,.63-6.15a67.54,67.54,0,0,0-4.43-27.8c-.85-2-1.59-3.94-2.52-5.65-.44-.86-.82-1.72-1.27-2.49l-1.32-2.23c-.8-1.45-1.71-2.63-2.44-3.72-.38-.54-.71-1-1.05-1.5l-1-1.2c-.55-.69-1-1.25-1.32-1.67a4.93,4.93,0,0,1-.43-.6,3.39,3.39,0,0,1,.51.53l1.4,1.62c.3.35.63.75,1,1.17s.69,1,1.08,1.48a43.6,43.6,0,0,1,2.51,3.7c.44.71.89,1.45,1.36,2.23s.85,1.63,1.31,2.49c.94,1.71,1.71,3.66,2.57,5.68a66,66,0,0,1,4.46,28,62,62,0,0,1-.68,6.19c-.17,1-.27,1.9-.47,2.79l-.6,2.53a41.58,41.58,0,0,1-1.24,4.3c-.2.62-.37,1.21-.57,1.74l-.58,1.43c-.34.82-.62,1.47-.83,2A6.52,6.52,0,0,1,246.81,178Z" style="fill:hsl(210, 13%, 14%)"></path><path d="M214.62,228.06c0,.14-16.64-2.32-37.11-5.5s-37.06-5.86-37-6,16.64,2.32,37.12,5.5S214.64,227.92,214.62,228.06Z" style="fill:hsl(210, 13%, 14%)"></path><path d="M207.54,250.36c0,.14-15.35-2.13-34.23-5.06s-34.18-5.41-34.16-5.55,15.34,2.12,34.23,5.05S207.56,250.22,207.54,250.36Z" style="fill:hsl(210, 13%, 14%)"></path><path d="M196.9,274.14a1.68,1.68,0,0,0,1.1-.34,1.54,1.54,0,0,0,.55-1.24,1.4,1.4,0,0,0-1-1.39L185,269.34l-41.42-6.2a1.22,1.22,0,0,0-1.13.43,1.2,1.2,0,0,0-.26.56,1.49,1.49,0,0,0,0,.66,1.24,1.24,0,0,0,.8.89c.4.1,1,.16,1.43.24l5.82.88,11,1.68,18.61,2.88,12.53,2,3.41.56.88.16a1.1,1.1,0,0,1,.3.08,2.33,2.33,0,0,1-.31,0l-.89-.1-3.42-.47-12.56-1.83L161.1,269l-11-1.66-5.81-.87c-.51-.09-.95-.12-1.52-.26a1.73,1.73,0,0,1-1.13-1.26,2.07,2.07,0,0,1,0-.86,1.65,1.65,0,0,1,.37-.79,1.72,1.72,0,0,1,1.6-.61L185,269c5.3.83,9.57,1.49,12.55,2a1.57,1.57,0,0,1,1.14,1.58,1.67,1.67,0,0,1-.64,1.32A1.33,1.33,0,0,1,196.9,274.14Z" style="fill:hsl(210, 13%, 14%)"></path><path d="M198.63,267.58a1.64,1.64,0,0,0,1.12-.35,1.58,1.58,0,0,0,.53-1.28,1.4,1.4,0,0,0-1.14-1.36l-12.86-1.86-42.4-6.36a1.24,1.24,0,0,0-1.15.46,1.26,1.26,0,0,0-.26.59,1.46,1.46,0,0,0,0,.66,1.22,1.22,0,0,0,.87.86c.45.09,1,.16,1.49.24l5.95.9,11.26,1.72,19,2.94,12.83,2,3.49.58.9.16.31.07-.31,0-.92-.11-3.5-.48L181,265.1,162,262.26l-11.26-1.69-5.95-.89c-.52-.09-1-.14-1.55-.25a1.73,1.73,0,0,1-1.22-1.21,2,2,0,0,1,0-.88,1.78,1.78,0,0,1,.36-.82,1.75,1.75,0,0,1,1.63-.65l42.38,6.5,12.84,2a1.56,1.56,0,0,1,1.25,1.54,1.7,1.7,0,0,1-.61,1.44,1.43,1.43,0,0,1-.9.34A.78.78,0,0,1,198.63,267.58Z" style="fill:hsl(210, 13%, 14%)"></path><path d="M200.78,261.09a1.52,1.52,0,0,0,1.65-1.73,1.4,1.4,0,0,0-1.31-1.28l-13.34-1.94-44-6.59a1.23,1.23,0,0,0-1.18.49,1.56,1.56,0,0,0-.19,1.31,1.29,1.29,0,0,0,1,.8l1.57.23,6.18.94,11.67,1.79,19.76,3.05,13.32,2.1,3.62.59.93.17.32.07a1,1,0,0,1-.32,0l-1-.12-3.63-.5-13.34-1.94-19.78-2.94-11.67-1.76-6.18-.93-1.58-.24a1.75,1.75,0,0,1-1.38-1.12,1.81,1.81,0,0,1-.08-.92,1.9,1.9,0,0,1,.33-.86,1.77,1.77,0,0,1,1.67-.69l44,6.73,13.32,2.1a1.58,1.58,0,0,1,1.43,1.47,1.73,1.73,0,0,1-.57,1.44,1.43,1.43,0,0,1-.9.34A.78.78,0,0,1,200.78,261.09Z" style="fill:hsl(210, 13%, 14%)"></path><path d="M214.62,228.06c0,.14-16.64-2.32-37.11-5.5s-37.06-5.86-37-6,16.64,2.32,37.12,5.5S214.64,227.92,214.62,228.06Z" style="fill:hsl(210, 13%, 14%)"></path><path d="M207.54,250.36c0,.14-15.35-2.13-34.23-5.06s-34.18-5.41-34.16-5.55,15.34,2.12,34.23,5.05S207.56,250.22,207.54,250.36Z" style="fill:hsl(210, 13%, 14%)"></path><path d="M146.15,252.75c5.75,2.17,11.66,3.2,18.19,4.18,5.27.8,10.42,1.73,16.15,2.51,4.21.57,8.09,1,12.3,1.45,2.12.25,4.52.11,5-.22Z" style="fill:hsl(210, 13%, 14%)"></path><path d="M145.13,259.36c5.75,2.17,11.66,3.2,18.19,4.18,5.27.8,10.41,1.73,16.15,2.51,4.2.57,8.09,1,12.29,1.45,2.13.25,4.52.11,5-.22Z" style="fill:hsl(210, 13%, 14%)"></path><path d="M144.1,266c5.75,2.17,11.66,3.2,18.19,4.18,5.27.8,10.42,1.73,16.15,2.51,4.2.57,8.09,1,12.3,1.45,2.12.25,4.52.11,5-.22Z" style="fill:hsl(210, 13%, 14%)"></path><path d="M145.11,273c5.32,2.11,10.8,3.06,16.85,4,4.89.73,9.66,1.61,15,2.32,3.9.53,7.5.88,11.4,1.32,2,.22,4.2.05,4.66-.28Z" style="fill:hsl(210, 13%, 14%)"></path><path d="M465.07,478.06c0,.15-96.3.26-215.06.26s-215.08-.11-215.08-.26,96.28-.26,215.08-.26S465.07,477.92,465.07,478.06Z" style="fill:hsl(210, 13%, 14%)"></path><path d="M382.61,351.82a8.12,8.12,0,0,1,3-2.4h-.25a4,4,0,0,1,.68-.17,3.2,3.2,0,0,1,2.54.08h0a6,6,0,0,1,3.51,2.54,7.06,7.06,0,0,1-.18,7.32,5.4,5.4,0,0,1-10-1A6.67,6.67,0,0,1,382.61,351.82Z" style="fill:hsl(210, 17%, 32%)"></path><path d="M298.38,358.07a8.12,8.12,0,0,1,3-2.4h-.24a5.54,5.54,0,0,1,.67-.18,3.2,3.2,0,0,1,2.54.09h0a6,6,0,0,1,3.5,2.53,7.06,7.06,0,0,1-.18,7.32,5.39,5.39,0,0,1-10-1A6.71,6.71,0,0,1,298.38,358.07Z" style="fill:hsl(210, 17%, 32%)"></path><path d="M305.6,360.63s0,.07,0,.21a2,2,0,0,1-.17.61,3.59,3.59,0,0,1-1.68,1.75,9.62,9.62,0,0,1-3.8,1.09,12.41,12.41,0,0,1-2.52,0,9.38,9.38,0,0,1-2.79-.62l.18-.11a7.79,7.79,0,0,1-12,5.84l.27-.07a3.27,3.27,0,0,1-1.95,1.52,4.48,4.48,0,0,1-2.54,0,4.13,4.13,0,0,1-2.16-1.5,5.49,5.49,0,0,1-1-2.51,8,8,0,0,1,1.32-5.33,23.2,23.2,0,0,1,3.82-4.31l.05.36a5.51,5.51,0,0,1-2.75-3.51,8.07,8.07,0,0,1,.11-4.64,12.46,12.46,0,0,1,2.44-4.09,38.44,38.44,0,0,1,3.47-3.4v.36a5.85,5.85,0,0,1-1.87-4.42,8.4,8.4,0,0,1,1.42-4.76c1.82-2.71,4.63-4.34,7.22-5.87l-.11.28a10.39,10.39,0,0,1,10.31-13.62l-.22.28a9,9,0,0,1,1.55-7.74,8.86,8.86,0,0,1,6.35-3.73l-.18.21a8.84,8.84,0,0,1,3-7.06,8.6,8.6,0,0,1,6.39-2.28l-.16.17a8.45,8.45,0,0,1,1-4.1,11.13,11.13,0,0,1,2.15-3,9,9,0,0,1,5.17-2.69l.58-.08h.56a6.3,6.3,0,0,1,1,0,9.57,9.57,0,0,1,1.52.31l.9.31a1.44,1.44,0,0,1,.3.12l-.31-.08-.91-.27A10.34,10.34,0,0,0,328,284a7.72,7.72,0,0,0-1,0h-.55l-.57.09a8.9,8.9,0,0,0-5,2.7,10.83,10.83,0,0,0-2.08,3,8.25,8.25,0,0,0-.92,3.95v.18h-.17a8.31,8.31,0,0,0-6.13,2.23,8.45,8.45,0,0,0-2.89,6.77l0,.2h-.2a8.46,8.46,0,0,0-6,3.58,8.58,8.58,0,0,0-1.47,7.38l.09.29h-.31a9.94,9.94,0,0,0-9.84,13l.06.18-.17.1c-2.58,1.53-5.33,3.14-7.06,5.72a8,8,0,0,0-1.34,4.5,5.38,5.38,0,0,0,1.71,4.06l.2.18-.2.17c-2.4,2.14-4.81,4.38-5.78,7.29a7.54,7.54,0,0,0-.11,4.36,5,5,0,0,0,2.51,3.24l.28.15-.23.21a23.57,23.57,0,0,0-3.76,4.22,7.58,7.58,0,0,0-1.27,5,4.2,4.2,0,0,0,2.84,3.69,3.44,3.44,0,0,0,4.05-1.29l.1-.18.16.11a7.59,7.59,0,0,0,7.92.17,7.69,7.69,0,0,0,3.62-5.72l0-.18.16.07a9.09,9.09,0,0,0,2.71.63,13.72,13.72,0,0,0,2.48,0,9.46,9.46,0,0,0,3.75-1,3.66,3.66,0,0,0,1.69-1.66C305.55,360.92,305.57,360.62,305.6,360.63Z" style="fill:hsl(210, 17%, 32%)"></path><path d="M394.47,341.63a1.6,1.6,0,0,1-.15-1.28,3.07,3.07,0,0,1,.82-1.36,5.47,5.47,0,0,1,1.86-1.11,9.19,9.19,0,0,0,2.36-1.19,4.89,4.89,0,0,0,1.57-2.63,9.36,9.36,0,0,0,.13-3.6c-.15-1.29-.45-2.64-.55-4.1-.25-2.95.79-6.05,1.31-9.36a13.18,13.18,0,0,0-.16-5.15,6.29,6.29,0,0,0-3.15-4.18c-1.66-.86-3.64-1-5.61-1.46a9.25,9.25,0,0,1-2.89-1.09,6.25,6.25,0,0,1-2.15-2.33,30.44,30.44,0,0,1-2.09-6,10.27,10.27,0,0,0-1.3-2.88A4.77,4.77,0,0,0,382,292a17.44,17.44,0,0,0-4.36-.27,7.11,7.11,0,0,1-2.22-.39,4.28,4.28,0,0,1-1.83-1.33,15.39,15.39,0,0,1-1.93-3.87,9.67,9.67,0,0,0-2.21-3.38,9.44,9.44,0,0,0-7-2.75,9.69,9.69,0,0,0-6.45,2.88l-.2.2-.13-.24a14.9,14.9,0,0,0-9.85-7.33,13.69,13.69,0,0,0-5.25-.07,12.49,12.49,0,0,0-4.2,1.51,11,11,0,0,0-4.25,4.52,11.94,11.94,0,0,0-.67,1.52l-.15.4c0,.09-.06.13-.07.13a1.31,1.31,0,0,1,0-.14l.12-.41a9.79,9.79,0,0,1,.62-1.56,11,11,0,0,1,4.24-4.67,12.56,12.56,0,0,1,4.27-1.58,14.06,14.06,0,0,1,5.37,0A15.26,15.26,0,0,1,356,282.69l-.33,0a10.1,10.1,0,0,1,6.72-3,9.88,9.88,0,0,1,7.38,2.87,10.09,10.09,0,0,1,2.32,3.52,15.09,15.09,0,0,0,1.86,3.75,4.56,4.56,0,0,0,3.71,1.54,17.14,17.14,0,0,1,4.48.3,5.24,5.24,0,0,1,2.7,2,11,11,0,0,1,1.36,3,30.89,30.89,0,0,0,2,5.93,5.88,5.88,0,0,0,2,2.17,9.08,9.08,0,0,0,2.74,1c1.92.44,3.94.59,5.71,1.51a5.92,5.92,0,0,1,2.19,1.9,7.72,7.72,0,0,1,1.16,2.57,13.39,13.39,0,0,1,.15,5.3c-.55,3.37-1.59,6.42-1.37,9.29.1,1.43.38,2.78.52,4.08a9.66,9.66,0,0,1-.17,3.7,5.07,5.07,0,0,1-1.69,2.75,9.37,9.37,0,0,1-2.43,1.19,5.15,5.15,0,0,0-1.83,1,3,3,0,0,0-.83,1.28A2.06,2.06,0,0,0,394.47,341.63Z" style="fill:hsl(210, 17%, 32%)"></path><path d="M244.94,348.27a5.53,5.53,0,0,1-.66-.89,8.18,8.18,0,0,1-1.05-3,7.9,7.9,0,0,1,.92-5,8.34,8.34,0,0,1,5.39-4l-.12.2a10.72,10.72,0,0,1,.85-7.81,10.56,10.56,0,0,1,2.81-3.47A25.11,25.11,0,0,1,257.2,322a8.59,8.59,0,0,0,2-1.36,5.36,5.36,0,0,0,1.28-2c.59-1.54.68-3.33,1.44-5a9.51,9.51,0,0,1,9.16-5.41l-.25.28a12.53,12.53,0,0,1,12.81-15.18l-.24.28A11,11,0,0,1,299.67,282l-.25,0a15.06,15.06,0,0,1,5.21-3.72,22.45,22.45,0,0,1,5.51-1.7,26.31,26.31,0,0,1,9.29-.05,18.56,18.56,0,0,1,5.67,1.88,10.51,10.51,0,1,1.33.83c.3.2.44.31.44.31s-.62-.4-1.83-1a19,19,0,0,0-5.65-1.76,26,26,0,0,0-9.2.14,22.23,22.23,0,0,0-5.41,1.71,14.62,14.62,0,0,0-5,3.65l-.11.13-.14-.09a10.92,10.92,0,0,0-10.86.22,10.79,10.79,0,0,0-4.8,10.86l.05.29h-.3a12.08,12.08,0,0,0-12.33,14.61l.07.31-.31,0a9,9,0,0,0-8.71,5.13c-.73,1.56-.83,3.34-1.44,5a5.68,5.68,0,0,1-1.4,2.17,8.9,8.9,0,0,1-2.05,1.43,24.67,24.67,0,0,0-4.07,2.26,10,10,0,0,0-2.73,3.33,10.41,10.41,0,0,0-.88,7.55l.05.16-.17,0a8.05,8.05,0,0,0-5.24,3.82,7.76,7.76,0,0,0-1,4.85,8.41,8.41,0,0,0,1,3C244.71,348,245,348.26,244.94,348.27Z" style="fill:hsl(210, 17%, 32%)"></path><path d="M207.94,377.38a23.88,23.88,0,0,1,2.45,3.24l2.49,3.6a14.09,14.09,0,0,1,1.36,2.26,4.38,4.38,0,0,1,.37,2.85,2.9,2.9,0,0,1-2,2.22,4.08,4.08,0,0,1-2.83-.33,12.1,12.1,0,0,1-2.11-1.24c-.62-.42-1.19-.82-1.7-1.21-1-.76-1.82-1.41-2.36-1.87a4.06,4.06,0,0,1-.78-.78c.07-.07,1.32.88,3.42,2.3a28.76,28.76,0,0,0,3.78,2.27,3.58,3.58,0,0,0,2.38.28A2.32,2.32,0,0,0,214,389.2a3.8,3.8,0,0,0-.33-2.48,14.73,14.73,0,0,0-1.27-2.19L210,380.85A25.63,25.63,0,0,1,207.94,377.38Z" style="fill:hsl(12, 17%, 35%)"></path><path d="M216.78,376.06a9.83,9.83,0,0,1,.81,1.47l2,4.13c1.69,3.51,4,8.42,6.59,14l.14.31-.34.11a32.13,32.13,0,0,1-3.18,1,7.06,7.06,0,0,1-1.39.2,2.82,2.82,0,0,1-.75-.08,1.92,1.92,0,0,1-.69-.32,6.92,6.92,0,0,1-1.84-1.86c-.93-1.4-1.59-2.8-2.34-4.11-1.43-2.62-2.74-5-3.88-6.91s-2.1-3.52-2.76-4.59a12.54,12.54,0,0,1-1-1.7,10.44,10.44,0,0,1,1.22,1.57c.73,1,1.75,2.57,3,4.5s2.55,4.26,4,6.86c.76,1.29,1.45,2.72,2.35,4a6.14,6.14,0,0,0,1.67,1.7,2.88,2.88,0,0,0,2.29.1c1.08-.26,2.11-.66,3.13-1l-.19.42c-2.57-5.57-4.81-10.51-6.4-14.06l-1.83-4.21A8.21,8.21,0,0,1,216.78,376.06Z" style="fill:hsl(12, 17%, 35%)"></path><path d="M225.86,366.4a2.83,2.83,0,0,1,.22.64l.52,1.85c.46,1.61,1.12,3.93,2.05,6.77s2.13,6.18,3.64,9.84a19.78,19.78,0,0,1,1.84,6,6.18,6.18,0,0,1-.66,3.32,5,5,0,0,1-2.65,2.46,4.63,4.63,0,0,1-3.69-.28,6.89,6.89,0,0,1-2.6-2.32,37,37,0,0,1-2.66-5.69l-4-9.74c-1.1-2.72-2-4.95-2.65-6.58l-.69-1.81a2.69,2.69,0,0,1-.2-.64,2.75,2.75,0,0,1,.32.6l.81,1.76,2.84,6.51,4.15,9.68a36.59,36.59,0,0,0,2.64,5.57,6.12,6.12,0,0,0,2.35,2.1,4,4,0,0,0,3.15.26,4.43,4.43,0,0,0,2.3-2.15,5.59,5.59,0,0,0,.6-3,19.2,19.2,0,0,0-1.76-5.81c-1.49-3.68-2.65-7.06-3.52-9.93s-1.47-5.21-1.85-6.83c-.18-.82-.32-1.45-.4-1.88A2.79,2.79,0,0,1,225.86,366.4Z" style="fill:hsl(12, 17%, 35%)"></path><path d="M234.64,410.55a4,4,0,0,1-1.9-.24,10.63,10.63,0,0,1-4-2.19,10,10,0,0,1-2.65-3.6,3.49,3.49,0,0,1-.41-1.77c.19-.07.89,2.68,3.5,4.91S234.7,410.36,234.64,410.55Z" style="fill:hsl(12, 17%, 35%)"></path></g></svg>